<svg width="63" height="38" viewBox="0 0 63 38" fill="none" xmlns="http://www.w3.org/2000/svg">
<path d="M20.7499 29.5337C26.7091 29.5337 31.5399 24.8026 31.5399 18.9666C31.5399 13.1305 26.7091 8.39941 20.7499 8.39941C14.7908 8.39941 9.95996 13.1305 9.95996 18.9666C9.95996 24.8026 14.7908 29.5337 20.7499 29.5337Z" fill="url(#paint0_linear_252_8)"/>
<path d="M38.4238 29.5332C44.3829 29.5332 49.2138 24.8021 49.2138 18.9661C49.2138 13.13 44.3829 8.39893 38.4238 8.39893C32.4646 8.39893 27.6338 13.13 27.6338 18.9661C27.6338 24.8021 32.4646 29.5332 38.4238 29.5332Z" fill="url(#paint1_linear_252_8)"/>
<path d="M38.0588 32.0018C48.952 25.3019 47.9928 9.43729 36.4496 3.87817C31.4519 1.47125 25.512 1.69296 20.7346 4.49635C10.7906 10.3315 10.0852 24.2212 19.2914 31.1205C24.7395 35.2034 32.2493 35.575 38.0588 32.0018Z" fill="url(#paint2_linear_252_8)"/>
<path d="M24.4684 21.1115H27.958V25.6822H27.192L26.9508 24.7097C26.4401 25.4599 25.6694 25.835 24.6386 25.835C23.4943 25.835 22.6195 25.4553 22.0143 24.6958C21.4185 23.9363 21.1206 22.8064 21.1206 21.306C21.1206 19.8056 21.4327 18.6757 22.0568 17.9163C22.681 17.1476 23.5605 16.7632 24.6953 16.7632C25.6789 16.7632 26.4685 17.0318 27.0643 17.5689C27.6601 18.1061 27.958 18.8841 27.958 19.9029H26.7806C26.7806 19.199 26.5962 18.6757 26.2274 18.333C25.8585 17.9811 25.3479 17.8051 24.6953 17.8051C23.9483 17.8051 23.3667 18.0737 22.9505 18.6109C22.5344 19.1481 22.3264 19.9399 22.3264 20.9865V21.6255C22.3264 22.6907 22.5202 23.4871 22.908 24.0151C23.3052 24.543 23.882 24.8069 24.6386 24.8069C25.3762 24.8069 25.9153 24.6032 26.2557 24.1957C26.6057 23.7789 26.7806 23.1537 26.7806 22.3202V22.0979H24.4684V21.1115ZM33.5316 16.7632C34.657 16.7632 35.5271 17.1476 36.1418 17.9163C36.7565 18.6757 37.0638 19.8056 37.0638 21.306C37.0638 22.7971 36.7517 23.9271 36.1276 24.6958C35.5129 25.4553 34.6476 25.835 33.5316 25.835C32.4157 25.835 31.5504 25.4553 30.9357 24.6958C30.321 23.9271 30.0137 22.7971 30.0137 21.306C30.0137 19.8056 30.321 18.6757 30.9357 17.9163C31.5504 17.1476 32.4157 16.7632 33.5316 16.7632ZM33.5316 17.8051C32.8035 17.8051 32.2361 18.0737 31.8294 18.6109C31.4227 19.1481 31.2194 19.9399 31.2194 20.9865V21.6255C31.2194 22.6721 31.4227 23.464 31.8294 24.0012C32.2361 24.5384 32.8035 24.8069 33.5316 24.8069C34.2598 24.8069 34.8272 24.5384 35.2339 24.0012C35.65 23.464 35.8581 22.6721 35.8581 21.6255V20.9865C35.8581 19.9399 35.65 19.1481 35.2339 18.6109C34.8272 18.0737 34.2598 17.8051 33.5316 17.8051Z" fill="white"/>
<path d="M24.4681 21.1114V20.7028H24.0509V21.1114H24.4681ZM27.9577 21.1114H28.3749V20.7028H27.9577V21.1114ZM27.9577 25.6821V26.0907H28.3749V25.6821H27.9577ZM27.1917 25.6821L26.7863 25.7785L26.8637 26.0907H27.1917V25.6821ZM26.9506 24.7096L27.356 24.6132L27.1314 23.7074L26.6034 24.4829L26.9506 24.7096ZM22.014 24.6957L21.6832 24.9447L21.6851 24.9471L22.014 24.6957ZM22.0566 17.9162L22.3816 18.1724L22.3831 18.1705L22.0566 17.9162ZM27.064 17.5689L27.3466 17.2682L27.064 17.5689ZM27.9577 19.9028V20.3114H28.3749V19.9028H27.9577ZM26.7803 19.9028H26.3631V20.3114H26.7803V19.9028ZM26.2271 18.3329L25.9359 18.6256L25.94 18.6294L26.2271 18.3329ZM22.9503 18.6108L23.2827 18.8578L22.9503 18.6108ZM22.9077 24.015L22.569 24.2536L22.5718 24.2573L22.9077 24.015ZM26.2555 24.1956L25.9332 23.9361L25.9326 23.9368L26.2555 24.1956ZM26.7803 22.0978H27.1975V21.6892H26.7803V22.0978ZM24.4681 22.0978H24.0509V22.5064H24.4681V22.0978ZM24.4681 21.52H27.9577V20.7028H24.4681V21.52ZM27.5405 21.1114V25.6821H28.3749V21.1114H27.5405ZM27.9577 25.2735H27.1917V26.0907H27.9577V25.2735ZM27.5972 25.5856L27.356 24.6132L26.5451 24.806L26.7863 25.7785L27.5972 25.5856ZM26.6034 24.4829C26.1804 25.1044 25.5492 25.4263 24.6383 25.4263V26.2435C25.7891 26.2435 26.6994 25.8152 27.2977 24.9362L26.6034 24.4829ZM24.6383 25.4263C23.5989 25.4263 22.8556 25.0876 22.3429 24.4443L21.6851 24.9471C22.3829 25.8227 23.3892 26.2435 24.6383 26.2435V25.4263ZM22.3449 24.4468C21.8289 23.789 21.5376 22.7641 21.5376 21.3059H20.7031C20.7031 22.8486 21.0076 24.0834 21.6832 24.9446L22.3449 24.4468ZM21.5376 21.3059C21.5376 19.8511 21.8418 18.8292 22.3816 18.1724L21.7316 17.66C21.0231 18.522 20.7031 19.76 20.7031 21.3059H21.5376ZM22.3831 18.1705C22.9171 17.5129 23.6685 17.1717 24.6951 17.1717V16.3545C23.4521 16.3545 22.4444 16.782 21.73 17.6619L22.3831 18.1705ZM24.6951 17.1717C25.5976 17.1717 26.2785 17.416 26.7815 17.8695L27.3466 17.2682C26.658 16.6474 25.7596 16.3545 24.6951 16.3545V17.1717ZM26.7815 17.8695C27.2686 18.3087 27.5405 18.9638 27.5405 19.9028H28.3749C28.3749 18.8043 28.0511 17.9034 27.3466 17.2682L26.7815 17.8695ZM27.9577 19.4942H26.7803V20.3114H27.9577V19.4942ZM27.1975 19.9028C27.1975 19.1341 26.9956 18.4838 26.5143 18.0365L25.94 18.6294C26.1962 18.8675 26.3631 19.2637 26.3631 19.9028H27.1975ZM26.5183 18.0403C26.0522 17.5955 25.426 17.3964 24.6951 17.3964V18.2136C25.2693 18.2136 25.6644 18.3665 25.936 18.6256L26.5183 18.0403ZM24.6951 17.3964C23.8303 17.3964 23.1203 17.7152 22.6179 18.3638L23.2827 18.8578C23.6124 18.432 24.0657 18.2136 24.6951 18.2136V17.3964ZM22.6179 18.3638C22.1238 19.0017 21.9089 19.8969 21.9089 20.9864H22.7433C22.7433 19.9828 22.9445 19.2942 23.2827 18.8578L22.6179 18.3638ZM21.9089 20.9864V21.6255H22.7433V20.9864H21.9089ZM21.9089 21.6255C21.9089 22.7263 22.1069 23.6244 22.569 24.2535L23.2464 23.7764C22.9331 23.3497 22.7433 22.6548 22.7433 21.6255H21.9089ZM22.5718 24.2573C23.0587 24.9045 23.769 25.2154 24.6383 25.2154V24.3982C23.9946 24.3982 23.5511 24.1813 23.2436 23.7726L22.5718 24.2573ZM24.6383 25.2154C25.4519 25.2154 26.1321 24.9885 26.5784 24.4543L25.9326 23.9368C25.698 24.2176 25.3 24.3982 24.6383 24.3982V25.2154ZM26.5778 24.4551C27.0147 23.9346 27.1975 23.1993 27.1975 22.3201H26.3631C26.3631 23.108 26.1961 23.623 25.9332 23.9361L26.5778 24.4551ZM27.1975 22.3201V22.0978H26.3631V22.3201H27.1975ZM26.7803 21.6892H24.4681V22.5064H26.7803V21.6892ZM24.8853 22.0978V21.1114H24.0509V22.0978H24.8853ZM36.1415 17.9162L35.813 18.1681L35.8146 18.17L36.1415 17.9162ZM36.1273 24.6957L35.8008 24.4414L35.8004 24.4419L36.1273 24.6957ZM30.9354 24.6957L30.607 24.9476L30.6085 24.9495L30.9354 24.6957ZM30.9354 17.9162L31.2624 18.17L31.2639 18.1681L30.9354 17.9162ZM31.8291 18.6108L32.1643 18.8542L31.8291 18.6108ZM31.8291 24.0011L32.1643 23.7577L31.8291 24.0011ZM35.2336 24.0011L34.9012 23.7541L34.8985 23.7577L35.2336 24.0011ZM35.2336 18.6108L34.8985 18.8542L34.9012 18.8578L35.2336 18.6108ZM33.5314 17.1717C34.5473 17.1717 35.2883 17.5119 35.813 18.1681L36.47 17.6642C35.7653 16.783 34.7663 16.3545 33.5314 16.3545V17.1717ZM35.8146 18.17C36.3464 18.8271 36.6463 19.85 36.6463 21.3059H37.4808C37.4808 19.7611 37.166 18.5242 36.4685 17.6623L35.8146 18.17ZM36.6463 21.3059C36.6463 22.7503 36.3426 23.774 35.8008 24.4414L36.4539 24.95C37.1603 24.0799 37.4808 22.8438 37.4808 21.3059H36.6463ZM35.8004 24.4419C35.2756 25.0902 34.5384 25.4263 33.5314 25.4263V26.2435C34.7563 26.2435 35.7497 25.8201 36.4543 24.9495L35.8004 24.4419ZM33.5314 25.4263C32.5244 25.4263 31.7872 25.0902 31.2624 24.4419L30.6085 24.9495C31.3132 25.8201 32.3065 26.2435 33.5314 26.2435V25.4263ZM31.2639 24.4438C30.7301 23.7761 30.4306 22.7514 30.4306 21.3059H29.5962C29.5962 22.8427 29.9114 24.0778 30.607 24.9476L31.2639 24.4438ZM30.4306 21.3059C30.4306 19.85 30.7306 18.8271 31.2624 18.17L30.6085 17.6623C29.9109 18.5242 29.5962 19.7611 29.5962 21.3059H30.4306ZM31.2639 18.1681C31.7894 17.511 32.5263 17.1717 33.5314 17.1717V16.3545C32.3046 16.3545 31.3109 16.7839 30.607 17.6642L31.2639 18.1681ZM33.5314 17.3964C32.6813 17.3964 31.9852 17.7185 31.494 18.3674L32.1643 18.8542C32.4863 18.4287 32.9251 18.2136 33.5314 18.2136V17.3964ZM31.494 18.3674C31.0115 19.0048 30.8019 19.8984 30.8019 20.9864H31.6364C31.6364 19.9812 31.8335 19.2912 32.1643 18.8542L31.494 18.3674ZM30.8019 20.9864V21.6255H31.6364V20.9864H30.8019ZM30.8019 21.6255C30.8019 22.7134 31.0115 23.6071 31.494 24.2444L32.1643 23.7577C31.8335 23.3207 31.6364 22.6306 31.6364 21.6255H30.8019ZM31.494 24.2444C31.9852 24.8933 32.6813 25.2154 33.5314 25.2154V24.3982C32.9251 24.3982 32.4863 24.1831 32.1643 23.7577L31.494 24.2444ZM33.5314 25.2154C34.3815 25.2154 35.0776 24.8933 35.5688 24.2444L34.8985 23.7577C34.5764 24.1831 34.1377 24.3982 33.5314 24.3982V25.2154ZM35.566 24.248C36.0601 23.6102 36.275 22.715 36.275 21.6255H35.4406C35.4406 22.6291 35.2394 23.3176 34.9012 23.7541L35.566 24.248ZM36.275 21.6255V20.9864H35.4406V21.6255H36.275ZM36.275 20.9864C36.275 19.8969 36.0601 19.0017 35.566 18.3638L34.9012 18.8578C35.2394 19.2942 35.4406 19.9828 35.4406 20.9864H36.275ZM35.5688 18.3674C35.0776 17.7185 34.3815 17.3964 33.5314 17.3964V18.2136C34.1377 18.2136 34.5764 18.4287 34.8985 18.8542L35.5688 18.3674Z" fill="white"/>
<path d="M24.7518 14.0541V11.0598C24.7563 10.9552 24.763 10.8376 24.7718 10.7068C24.7807 10.5717 24.7874 10.478 24.7919 10.4257H24.7718L24.7318 10.5957C24.7229 10.6349 24.7073 10.7024 24.6851 10.7983C24.6672 10.8942 24.6472 10.9814 24.625 11.0598L23.7839 14.0541H23.3099L22.4621 11.0598C22.4354 10.9639 22.4043 10.8158 22.3687 10.6153L22.3353 10.4257H22.3086C22.3131 10.4824 22.3197 10.5782 22.3286 10.7133C22.3375 10.8441 22.3442 10.9596 22.3486 11.0598V14.0541H21.8613V9.93536H22.6824L23.4234 12.6354C23.459 12.7618 23.4901 12.9318 23.5169 13.1453C23.548 13.3545 23.5658 13.494 23.5703 13.5637H23.5903C23.5947 13.494 23.6103 13.3524 23.637 13.1388C23.6637 12.9209 23.6949 12.7531 23.7305 12.6354L24.4714 9.93536H25.2925V14.0541H24.7518ZM27.0411 10.8179C27.3659 10.8179 27.6107 10.8942 27.7754 11.0468C27.94 11.1993 28.0224 11.4172 28.0224 11.7005V13.4788C28.0224 13.5441 28.0379 13.5964 28.0691 13.6357C28.1002 13.6705 28.138 13.688 28.1826 13.688H28.3895V14.0279C28.3005 14.0758 28.1892 14.0998 28.0557 14.0998C27.9266 14.0998 27.8154 14.065 27.722 13.9952C27.6329 13.9255 27.5751 13.8318 27.5484 13.7141H27.515C27.4304 13.8449 27.3192 13.9473 27.1812 14.0214C27.0477 14.0911 26.8964 14.126 26.7273 14.126C26.5092 14.126 26.3134 14.0628 26.1399 13.9364C25.9663 13.81 25.8795 13.5768 25.8795 13.2369C25.8795 12.8315 26.0197 12.5548 26.3001 12.4066C26.5804 12.2541 26.9854 12.1778 27.515 12.1778V11.7724C27.515 11.6068 27.4772 11.4804 27.4015 11.3933C27.3303 11.3061 27.199 11.2625 27.0077 11.2625C26.8296 11.2625 26.7006 11.3104 26.6205 11.4063C26.5448 11.5022 26.507 11.6177 26.507 11.7528V11.8313H26.013C26.0086 11.8095 26.0064 11.7637 26.0064 11.694C26.0064 11.415 26.0998 11.1993 26.2867 11.0468C26.4781 10.8942 26.7295 10.8179 27.0411 10.8179ZM27.515 12.6223C27.1456 12.6223 26.8675 12.6637 26.6806 12.7465C26.4981 12.825 26.4069 12.9775 26.4069 13.2042C26.4069 13.3785 26.4425 13.5027 26.5137 13.5768C26.5893 13.6509 26.7006 13.688 26.8475 13.688C27.021 13.688 27.1746 13.6182 27.3081 13.4788C27.446 13.3393 27.515 13.1475 27.515 12.9034V12.6223ZM29.8711 10.8179C29.9245 10.8179 29.9734 10.8245 30.0179 10.8376C30.0625 10.8506 30.0914 10.8593 30.1047 10.8637V11.3802H29.9378C29.7643 11.3802 29.6219 11.439 29.5106 11.5567C29.3993 11.6744 29.3437 11.864 29.3437 12.1255V14.0541H28.8364V10.8899H29.2169L29.2903 11.3083H29.3237C29.3682 11.1688 29.435 11.0533 29.524 10.9618C29.613 10.8659 29.7287 10.8179 29.8711 10.8179ZM32.6146 10.8899L31.6666 12.1908L32.668 14.0541H32.0939L31.3596 12.6158L31.0191 12.9819V14.0541H30.5118V9.70654H31.0191V12.3608L32.0605 10.8899H32.6146ZM34.123 10.8179C34.488 10.8179 34.7572 10.9356 34.9308 11.171C35.1043 11.4063 35.1911 11.7855 35.1911 12.3085V12.6223H33.4421C33.4466 12.9884 33.5045 13.2586 33.6157 13.433C33.7314 13.603 33.9094 13.688 34.1497 13.688C34.31 13.688 34.439 13.6248 34.5369 13.4984C34.6393 13.3676 34.6905 13.1955 34.6905 12.9819H35.1911C35.1911 13.3306 35.0932 13.6095 34.8974 13.8187C34.7061 14.0235 34.4524 14.126 34.1364 14.126C33.7225 14.126 33.4132 13.9952 33.2085 13.7337C33.0082 13.4722 32.9081 13.0538 32.9081 12.4785C32.9081 11.9119 33.0082 11.4935 33.2085 11.2233C33.4088 10.9531 33.7136 10.8179 34.123 10.8179ZM34.123 11.2625C33.905 11.2625 33.7425 11.3388 33.6357 11.4913C33.5334 11.6395 33.4711 11.8683 33.4488 12.1778H34.6638C34.6638 11.5676 34.4835 11.2625 34.123 11.2625ZM36.7462 11.3344H36.319V13.4003C36.319 13.4918 36.3434 13.5637 36.3924 13.616C36.4413 13.664 36.5125 13.688 36.606 13.688H36.7462V14.0279C36.7061 14.0541 36.6527 14.0737 36.586 14.0868C36.5192 14.1042 36.4525 14.1129 36.3857 14.1129C36.1854 14.1129 36.0386 14.0432 35.9451 13.9037C35.8561 13.7642 35.8116 13.5921 35.8116 13.3872V11.3344H35.5312V10.8899H35.8116L35.9251 10.0138H36.319V10.8899H36.7462V11.3344Z" fill="white"/>
<defs>
<linearGradient id="paint0_linear_252_8" x1="31.5399" y1="18.0396" x2="9.01346" y2="18.0396" gradientUnits="userSpaceOnUse">
<stop stop-color="#F25686" stop-opacity="0.31"/>
<stop offset="0.5" stop-color="#A959AA" stop-opacity="0.33"/>
<stop offset="1" stop-color="#42A3FB" stop-opacity="0.42"/>
</linearGradient>
<linearGradient id="paint1_linear_252_8" x1="75.4971" y1="18.9661" x2="26.6881" y2="17.9996" gradientUnits="userSpaceOnUse">
<stop stop-color="#F25686" stop-opacity="0.31"/>
<stop offset="0.5" stop-color="#A959AA" stop-opacity="0.33"/>
<stop offset="1" stop-color="#42A3FB" stop-opacity="0.42"/>
</linearGradient>
<linearGradient id="paint2_linear_252_8" x1="101.095" y1="14.7227" x2="4.16448" y2="14.7227" gradientUnits="userSpaceOnUse">
<stop stop-color="#C5436B"/>
<stop offset="0.59375" stop-color="#AA24AC"/>
<stop offset="1" stop-color="#0689FF"/>
</linearGradient>
</defs>
</svg>
